<svg width="16" height="16" viewBox="0 0 16 16" fill="none" xmlns="http://www.w3.org/2000/svg">
<g clip-path="url(#clip0_5_647)">
<path d="M-7.62939e-06 12.6667C0.00105094 13.5504 0.35258 14.3977 0.977472 15.0226C1.60236 15.6475 2.4496 15.999 3.33333 16H12.6667C13.5504 15.999 14.3976 15.6475 15.0225 15.0226C15.6474 14.3977 15.9989 13.5504 16 12.6667V6.66672H-7.62939e-06V12.6667ZM11.3333 9.66672C11.5311 9.66672 11.7244 9.72537 11.8889 9.83525C12.0533 9.94513 12.1815 10.1013 12.2572 10.284C12.3329 10.4668 12.3527 10.6678 12.3141 10.8618C12.2755 11.0558 12.1803 11.234 12.0404 11.3738C11.9006 11.5137 11.7224 11.6089 11.5284 11.6475C11.3344 11.6861 11.1334 11.6663 10.9506 11.5906C10.7679 11.5149 10.6117 11.3867 10.5019 11.2223C10.392 11.0578 10.3333 10.8645 10.3333 10.6667C10.3333 10.4015 10.4387 10.1471 10.6262 9.95961C10.8138 9.77207 11.0681 9.66672 11.3333 9.66672ZM7.99999 9.66672C8.19777 9.66672 8.39111 9.72537 8.55556 9.83525C8.72001 9.94513 8.84818 10.1013 8.92387 10.284C8.99956 10.4668 9.01936 10.6678 8.98078 10.8618C8.94219 11.0558 8.84695 11.234 8.7071 11.3738C8.56725 11.5137 8.38906 11.6089 8.19508 11.6475C8.0011 11.6861 7.80004 11.6663 7.61731 11.5906C7.43458 11.5149 7.2784 11.3867 7.16852 11.2223C7.05864 11.0578 6.99999 10.8645 6.99999 10.6667C6.99999 10.4015 7.10535 10.1471 7.29289 9.95961C7.48042 9.77207 7.73478 9.66672 7.99999 9.66672ZM4.66666 9.66672C4.86444 9.66672 5.05778 9.72537 5.22223 9.83525C5.38668 9.94513 5.51485 10.1013 5.59054 10.284C5.66623 10.4668 5.68603 10.6678 5.64744 10.8618C5.60886 11.0558 5.51362 11.234 5.37377 11.3738C5.23391 11.5137 5.05573 11.6089 4.86175 11.6475C4.66777 11.6861 4.4667 11.6663 4.28398 11.5906C4.10125 11.5149 3.94507 11.3867 3.83519 11.2223C3.72531 11.0578 3.66666 10.8645 3.66666 10.6667C3.66666 10.4015 3.77202 10.1471 3.95955 9.95961C4.14709 9.77207 4.40144 9.66672 4.66666 9.66672Z" fill="#858D9D"/>
<path d="M12.6667 1.33333H12V0.666667C12 0.489856 11.9298 0.320286 11.8047 0.195262C11.6797 0.0702379 11.5101 0 11.3333 0C11.1565 0 10.987 0.0702379 10.8619 0.195262C10.7369 0.320286 10.6667 0.489856 10.6667 0.666667V1.33333H5.33333V0.666667C5.33333 0.489856 5.2631 0.320286 5.13807 0.195262C5.01305 0.0702379 4.84348 0 4.66667 0C4.48986 0 4.32029 0.0702379 4.19526 0.195262C4.07024 0.320286 4 0.489856 4 0.666667V1.33333H3.33333C2.4496 1.33439 1.60237 1.68592 0.97748 2.31081C0.352588 2.93571 0.00105857 3.78294 0 4.66667L0 5.33333H16V4.66667C15.9989 3.78294 15.6474 2.93571 15.0225 2.31081C14.3976 1.68592 13.5504 1.33439 12.6667 1.33333Z" fill="#858D9D"/>
</g>
<defs>
<clipPath id="clip0_5_647">
<rect width="16" height="16" fill="white"/>
</clipPath>
</defs>
</svg>
