<svg width="16" height="16" viewBox="0 0 16 16" fill="none" xmlns="http://www.w3.org/2000/svg">
<path d="M7.99997 2.66669C8.73636 2.66669 9.33332 2.06973 9.33332 1.33334C9.33332 0.596958 8.73636 0 7.99997 0C7.26359 0 6.66663 0.596958 6.66663 1.33334C6.66663 2.06973 7.26359 2.66669 7.99997 2.66669Z" fill="#858D9D"/>
<path d="M7.99997 9.33335C8.73636 9.33335 9.33332 8.73639 9.33332 8.00001C9.33332 7.26362 8.73636 6.66666 7.99997 6.66666C7.26359 6.66666 6.66663 7.26362 6.66663 8.00001C6.66663 8.73639 7.26359 9.33335 7.99997 9.33335Z" fill="#858D9D"/>
<path d="M7.99997 16C8.73636 16 9.33332 15.403 9.33332 14.6666C9.33332 13.9302 8.73636 13.3333 7.99997 13.3333C7.26359 13.3333 6.66663 13.9302 6.66663 14.6666C6.66663 15.403 7.26359 16 7.99997 16Z" fill="#858D9D"/>
</svg>
