<svg width="18" height="18" viewBox="0 0 18 18" fill="none" xmlns="http://www.w3.org/2000/svg">
<path d="M4.81052 11.6895H13.1895C13.3378 11.6895 13.4828 11.6455 13.6061 11.5631C13.7294 11.4807 13.8255 11.3636 13.8823 11.2265C13.939 11.0895 13.9539 10.9387 13.925 10.7933C13.896 10.6478 13.8246 10.5142 13.7198 10.4093L9.53027 6.2198C9.38963 6.0792 9.1989 6.00021 9.00002 6.00021C8.80115 6.00021 8.61042 6.0792 8.46977 6.2198L4.28027 10.4093C4.17542 10.5142 4.10401 10.6478 4.07509 10.7933C4.04616 10.9387 4.06101 11.0895 4.11777 11.2265C4.17452 11.3636 4.27062 11.4807 4.39393 11.5631C4.51724 11.6455 4.66221 11.6895 4.81052 11.6895Z" fill="#883DCF"/>
</svg>
