<svg width="16" height="16" viewBox="0 0 16 16" fill="none" xmlns="http://www.w3.org/2000/svg">
<path d="M8.00001 2.66669C8.73639 2.66669 9.33335 2.06973 9.33335 1.33334C9.33335 0.596958 8.73639 0 8.00001 0C7.26362 0 6.66666 0.596958 6.66666 1.33334C6.66666 2.06973 7.26362 2.66669 8.00001 2.66669Z" fill="#858D9D"/>
<path d="M8.00001 9.33334C8.73639 9.33334 9.33335 8.73638 9.33335 8C9.33335 7.26361 8.73639 6.66665 8.00001 6.66665C7.26362 6.66665 6.66666 7.26361 6.66666 8C6.66666 8.73638 7.26362 9.33334 8.00001 9.33334Z" fill="#858D9D"/>
<path d="M8.00001 16C8.73639 16 9.33335 15.403 9.33335 14.6666C9.33335 13.9303 8.73639 13.3333 8.00001 13.3333C7.26362 13.3333 6.66666 13.9303 6.66666 14.6666C6.66666 15.403 7.26362 16 8.00001 16Z" fill="#858D9D"/>
</svg>
