<svg width="16" height="16" viewBox="0 0 16 16" fill="none" xmlns="http://www.w3.org/2000/svg">
<path d="M8 2.66669C8.73639 2.66669 9.33335 2.06973 9.33335 1.33334C9.33335 0.596958 8.73639 0 8 0C7.26361 0 6.66665 0.596958 6.66665 1.33334C6.66665 2.06973 7.26361 2.66669 8 2.66669Z" fill="#858D9D"/>
<path d="M8 9.33334C8.73639 9.33334 9.33335 8.73638 9.33335 7.99999C9.33335 7.2636 8.73639 6.66664 8 6.66664C7.26361 6.66664 6.66665 7.2636 6.66665 7.99999C6.66665 8.73638 7.26361 9.33334 8 9.33334Z" fill="#858D9D"/>
<path d="M8 16C8.73639 16 9.33335 15.403 9.33335 14.6667C9.33335 13.9303 8.73639 13.3333 8 13.3333C7.26361 13.3333 6.66665 13.9303 6.66665 14.6667C6.66665 15.403 7.26361 16 8 16Z" fill="#858D9D"/>
</svg>
