<svg width="18" height="18" viewBox="0 0 18 18" fill="none" xmlns="http://www.w3.org/2000/svg">
<g clip-path="url(#clip0_3_198)">
<path d="M17.0304 17.0308C16.7379 17.3233 16.2624 17.3233 15.9699 17.0308L14.9094 15.9703L13.8481 17.0308C13.5601 17.3285 13.0854 17.3368 12.7876 17.0495C12.4899 16.7615 12.4816 16.2868 12.7689 15.989C12.7749 15.983 12.7809 15.9763 12.7876 15.9703L13.8481 14.9098L12.7876 13.8485C12.4899 13.5605 12.4816 13.0858 12.7689 12.788C13.0569 12.4903 13.5316 12.482 13.8294 12.7693C13.8354 12.7753 13.8421 12.7813 13.8481 12.788L14.9094 13.8485L15.9699 12.788C16.2579 12.4903 16.7326 12.482 17.0304 12.7693C17.3281 13.0573 17.3364 13.532 17.0491 13.8298C17.0431 13.8358 17.0371 13.8425 17.0304 13.8485L15.9699 14.9098L17.0304 15.9703C17.3244 16.262 17.3281 16.7345 17.0364 17.0285C17.0349 17.03 17.0341 17.0315 17.0304 17.0308Z" fill="#EB3D4D"/>
<path d="M10.5262 15.0113C10.5232 12.5386 12.525 10.5316 14.997 10.5278C15.9592 10.5263 16.8967 10.8353 17.6692 11.4091C18.999 6.62031 16.1947 1.66056 11.4067 0.330806C6.61874 -0.998944 1.65974 1.80456 0.32999 6.59331C-0.99976 11.3821 1.80449 16.3426 6.59249 17.6723C8.16749 18.1096 9.83174 18.1096 11.4067 17.6723C10.8352 16.9028 10.5262 15.9698 10.5262 15.0113ZM9.74999 9.01656C9.74999 9.21606 9.67049 9.40656 9.52949 9.54756L7.27574 11.8021C6.97724 12.0901 6.50174 12.0818 6.21374 11.7833C5.93249 11.4923 5.93249 11.0303 6.21374 10.7393L8.24774 8.70531V5.25981C8.24774 4.84506 8.58374 4.50831 8.99924 4.50831C9.41399 4.50831 9.74999 4.84506 9.74999 5.25981V9.01656Z" fill="#EB3D4D"/>
</g>
<defs>
<clipPath id="clip0_3_198">
<rect width="18" height="18" fill="white"/>
</clipPath>
</defs>
</svg>
