<svg width="16" height="16" viewBox="0 0 16 16" fill="none" xmlns="http://www.w3.org/2000/svg">
<path d="M8 2.66669C8.73638 2.66669 9.33334 2.06973 9.33334 1.33334C9.33334 0.596958 8.73638 0 8 0C7.26361 0 6.66665 0.596958 6.66665 1.33334C6.66665 2.06973 7.26361 2.66669 8 2.66669Z" fill="#858D9D"/>
<path d="M8 9.33334C8.73638 9.33334 9.33334 8.73638 9.33334 8C9.33334 7.26361 8.73638 6.66665 8 6.66665C7.26361 6.66665 6.66665 7.26361 6.66665 8C6.66665 8.73638 7.26361 9.33334 8 9.33334Z" fill="#858D9D"/>
<path d="M8 16C8.73638 16 9.33334 15.403 9.33334 14.6666C9.33334 13.9303 8.73638 13.3333 8 13.3333C7.26361 13.3333 6.66665 13.9303 6.66665 14.6666C6.66665 15.403 7.26361 16 8 16Z" fill="#858D9D"/>
</svg>
