<svg width="18" height="18" viewBox="0 0 18 18" fill="none" xmlns="http://www.w3.org/2000/svg">
<g clip-path="url(#clip0_3_184)">
<path d="M7.49999 17.2495C7.49999 17.4484 7.42098 17.6392 7.28032 17.7799C7.13967 17.9205 6.94891 17.9995 6.74999 17.9995H0.749994C0.551082 17.9995 0.360316 17.9205 0.219664 17.7799C0.0790119 17.6392 -5.72205e-06 17.4484 -5.72205e-06 17.2495C-5.72205e-06 17.0506 0.0790119 16.8599 0.219664 16.7192C0.360316 16.5786 0.551082 16.4995 0.749994 16.4995H6.74999C6.94891 16.4995 7.13967 16.5786 7.28032 16.7192C7.42098 16.8599 7.49999 17.0506 7.49999 17.2495Z" fill="#F86624"/>
<path d="M0.749994 15H5.24999C5.44891 15 5.63967 14.921 5.78032 14.7803C5.92098 14.6397 5.99999 14.4489 5.99999 14.25C5.99999 14.0511 5.92098 13.8603 5.78032 13.7197C5.63967 13.579 5.44891 13.5 5.24999 13.5H0.749994C0.551082 13.5 0.360316 13.579 0.219664 13.7197C0.0790119 13.8603 -5.72205e-06 14.0511 -5.72205e-06 14.25C-5.72205e-06 14.4489 0.0790119 14.6397 0.219664 14.7803C0.360316 14.921 0.551082 15 0.749994 15V15Z" fill="#F86624"/>
<path d="M0.749994 12.0005H3.74999C3.94891 12.0005 4.13967 11.9214 4.28032 11.7808C4.42098 11.6401 4.49999 11.4494 4.49999 11.2505C4.49999 11.0515 4.42098 10.8608 4.28032 10.7201C4.13967 10.5795 3.94891 10.5005 3.74999 10.5005H0.749994C0.551082 10.5005 0.360316 10.5795 0.219664 10.7201C0.0790119 10.8608 -5.72205e-06 11.0515 -5.72205e-06 11.2505C-5.72205e-06 11.4494 0.0790119 11.6401 0.219664 11.7808C0.360316 11.9214 0.551082 12.0005 0.749994 12.0005V12.0005Z" fill="#F86624"/>
<path d="M9 0C6.61305 0 4.32387 0.948211 2.63604 2.63604C0.948211 4.32387 0 6.61305 0 9C0 9.04575 0.006 9.09 0.00675 9.13575C0.244947 9.04845 0.496322 9.00254 0.75 9H3.75C4.11817 8.99875 4.48099 9.08818 4.80642 9.26037C5.13184 9.43257 5.40986 9.68224 5.61593 9.98734C5.822 10.2924 5.94978 10.6436 5.98799 11.0098C6.0262 11.376 5.97365 11.7459 5.835 12.087C6.14208 12.1676 6.42844 12.3128 6.67492 12.5129C6.92141 12.713 7.12236 12.9634 7.26434 13.2473C7.40632 13.5313 7.48607 13.8423 7.49825 14.1595C7.51044 14.4768 7.45478 14.793 7.335 15.087C7.63494 15.1635 7.91547 15.3021 8.15847 15.4939C8.40146 15.6856 8.6015 15.9263 8.74564 16.2002C8.88978 16.4741 8.97482 16.7753 8.99525 17.0841C9.01568 17.393 8.97105 17.7027 8.86425 17.9932C8.91 17.9932 8.95425 18 9 18C11.3869 18 13.6761 17.0518 15.364 15.364C17.0518 13.6761 18 11.3869 18 9C18 6.61305 17.0518 4.32387 15.364 2.63604C13.6761 0.948211 11.3869 0 9 0V0ZM11.7802 11.7802C11.6396 11.9209 11.4489 11.9998 11.25 11.9998C11.0511 11.9998 10.8604 11.9209 10.7198 11.7802L8.46975 9.53025C8.32909 9.38963 8.25004 9.1989 8.25 9V5.25C8.25 5.05109 8.32902 4.86032 8.46967 4.71967C8.61032 4.57902 8.80109 4.5 9 4.5C9.19891 4.5 9.38968 4.57902 9.53033 4.71967C9.67098 4.86032 9.75 5.05109 9.75 5.25V8.6895L11.7802 10.7198C11.9209 10.8604 11.9998 11.0511 11.9998 11.25C11.9998 11.4489 11.9209 11.6396 11.7802 11.7802V11.7802Z" fill="#F86624"/>
</g>
<defs>
<clipPath id="clip0_3_184">
<rect width="18" height="18" fill="white"/>
</clipPath>
</defs>
</svg>
