<svg width="18" height="18" viewBox="0 0 18 18" fill="none" xmlns="http://www.w3.org/2000/svg">
<path d="M11.25 6.00004H16.155C15.8931 5.30619 15.4864 4.67619 14.9618 4.15205L12.3488 1.53755C11.824 1.01354 11.1938 0.607031 10.5 0.345047V5.25005C10.5 5.66422 10.8358 6.00004 11.25 6.00004Z" fill="#667085"/>
<path d="M16.482 7.49999H11.25C10.0074 7.49999 8.99999 6.49262 8.99999 5.24999V0.018C8.87923 0.00973828 8.7585 0 8.63623 0H5.24998C3.17994 0.00249609 1.50246 1.67998 1.5 3.75001V14.25C1.50246 16.32 3.17994 17.9975 5.24998 18H12.75C14.82 17.9975 16.4975 16.32 16.5 14.25V7.86375C16.5 7.74151 16.4902 7.62075 16.482 7.49999Z" fill="#667085"/>
</svg>
