<svg width="18" height="18" viewBox="0 0 18 18" fill="none" xmlns="http://www.w3.org/2000/svg">
<g clip-path="url(#clip0_3_191)">
<path d="M14.2132 17.2506H14.1884C13.8052 17.2446 13.4407 17.0819 13.1804 16.8006L11.7419 15.3899C11.4539 15.0921 11.4607 14.6174 11.7584 14.3294C11.7592 14.3286 11.7599 14.3279 11.7607 14.3271C12.0584 14.0414 12.5309 14.0496 12.8182 14.3451L14.2139 15.7124L16.7197 13.2066C17.0122 12.9141 17.4877 12.9141 17.7802 13.2066C18.0727 13.4991 18.0727 13.9746 17.7802 14.2671L15.2144 16.8329C14.9504 17.1006 14.5897 17.2514 14.2132 17.2506V17.2506Z" fill="#22CAAD"/>
<path d="M10.5262 15.0113C10.5232 12.5386 12.525 10.5316 14.997 10.5278C15.9592 10.5263 16.8967 10.8353 17.6692 11.4091C18.999 6.62031 16.1947 1.66056 11.4067 0.330806C6.61874 -0.998944 1.65974 1.80456 0.32999 6.59331C-0.99976 11.3821 1.80449 16.3426 6.59249 17.6723C8.16749 18.1096 9.83174 18.1096 11.4067 17.6723C10.8352 16.9028 10.5262 15.9698 10.5262 15.0113ZM9.74999 9.01656C9.74999 9.21606 9.67049 9.40656 9.52949 9.54756L7.27574 11.8021C6.97724 12.0901 6.50174 12.0818 6.21374 11.7833C5.93249 11.4923 5.93249 11.0303 6.21374 10.7393L8.24774 8.70531V5.25981C8.24774 4.84506 8.58374 4.50831 8.99924 4.50831C9.41399 4.50831 9.74999 4.84506 9.74999 5.25981V9.01656Z" fill="#22CAAD"/>
</g>
<defs>
<clipPath id="clip0_3_191">
<rect width="18" height="18" fill="white"/>
</clipPath>
</defs>
</svg>
