<svg width="16" height="18" viewBox="0 0 16 18" fill="none" xmlns="http://www.w3.org/2000/svg">
<path d="M10.25 6.00005H15.155C14.8931 5.30621 14.4864 4.67621 13.9618 4.15206L11.3488 1.53756C10.824 1.01356 10.1938 0.607047 9.5 0.345062V5.25006C9.5 5.66424 9.83578 6.00005 10.25 6.00005Z" fill="#667085"/>
<path d="M15.482 7.49999H10.25C9.00736 7.49999 7.99999 6.49262 7.99999 5.24999V0.018C7.87923 0.00973828 7.7585 0 7.63623 0H4.24998C2.17994 0.00249609 0.502461 1.67998 0.5 3.75001V14.25C0.502461 16.32 2.17994 17.9975 4.24998 18H11.75C13.82 17.9975 15.4975 16.32 15.5 14.25V7.86375C15.5 7.74151 15.4902 7.62075 15.482 7.49999Z" fill="#667085"/>
</svg>
