<svg width="4" height="16" viewBox="0 0 4 16" fill="none" xmlns="http://www.w3.org/2000/svg">
<path d="M2 2.66669C2.73639 2.66669 3.33335 2.06973 3.33335 1.33334C3.33335 0.596958 2.73639 0 2 0C1.26361 0 0.666649 0.596958 0.666649 1.33334C0.666649 2.06973 1.26361 2.66669 2 2.66669Z" fill="#858D9D"/>
<path d="M2 9.33335C2.73639 9.33335 3.33335 8.73639 3.33335 8C3.33335 7.26361 2.73639 6.66665 2 6.66665C1.26361 6.66665 0.666649 7.26361 0.666649 8C0.666649 8.73639 1.26361 9.33335 2 9.33335Z" fill="#858D9D"/>
<path d="M2 16C2.73639 16 3.33335 15.403 3.33335 14.6666C3.33335 13.9303 2.73639 13.3333 2 13.3333C1.26361 13.3333 0.666649 13.9303 0.666649 14.6666C0.666649 15.403 1.26361 16 2 16Z" fill="#858D9D"/>
</svg>
